<mxfile host="app.diagrams.net" agent="Mozilla/5.0 (Windows NT 10.0; Win64; x64) AppleWebKit/537.36 (KHTML, like Gecko) Chrome/136.0.0.0 Safari/537.36" version="27.0.9">
  <diagram name="Trang-1" id="Pjtlc8Oh5DWK69H9z6_M">
    <mxGraphModel dx="1042" dy="535" grid="1" gridSize="10" guides="1" tooltips="1" connect="1" arrows="1" fold="1" page="1" pageScale="1" pageWidth="827" pageHeight="1169" math="0" shadow="0">
      <root>
        <mxCell id="0" />
        <mxCell id="1" parent="0" />
        <mxCell id="6CS_z7qw0i-uUimPx4ec-1" value="Quản lý khách hàng" style="ellipse;whiteSpace=wrap;html=1;" vertex="1" parent="1">
          <mxGeometry x="250" y="230" width="140" height="70" as="geometry" />
        </mxCell>
        <mxCell id="6CS_z7qw0i-uUimPx4ec-2" value="Quản lý nhân viên kỹ thuật" style="ellipse;whiteSpace=wrap;html=1;" vertex="1" parent="1">
          <mxGeometry x="210" y="20" width="140" height="70" as="geometry" />
        </mxCell>
        <mxCell id="6CS_z7qw0i-uUimPx4ec-3" value="Quản lý người dùng cấp 2" style="ellipse;whiteSpace=wrap;html=1;" vertex="1" parent="1">
          <mxGeometry x="260" y="515" width="140" height="70" as="geometry" />
        </mxCell>
        <mxCell id="6CS_z7qw0i-uUimPx4ec-4" value="Cập nhật profile" style="ellipse;whiteSpace=wrap;html=1;" vertex="1" parent="1">
          <mxGeometry x="260" y="425" width="140" height="70" as="geometry" />
        </mxCell>
        <mxCell id="6CS_z7qw0i-uUimPx4ec-5" value="Quản lý thiết bị" style="ellipse;whiteSpace=wrap;html=1;" vertex="1" parent="1">
          <mxGeometry x="250" y="320" width="140" height="70" as="geometry" />
        </mxCell>
        <mxCell id="6CS_z7qw0i-uUimPx4ec-6" value="Giám sát tức thời" style="ellipse;whiteSpace=wrap;html=1;" vertex="1" parent="1">
          <mxGeometry x="520" y="495" width="140" height="70" as="geometry" />
        </mxCell>
        <mxCell id="6CS_z7qw0i-uUimPx4ec-9" style="rounded=0;orthogonalLoop=1;jettySize=auto;html=1;entryX=0;entryY=1;entryDx=0;entryDy=0;endArrow=none;startFill=0;" edge="1" parent="1" source="6CS_z7qw0i-uUimPx4ec-7" target="6CS_z7qw0i-uUimPx4ec-2">
          <mxGeometry relative="1" as="geometry" />
        </mxCell>
        <mxCell id="6CS_z7qw0i-uUimPx4ec-10" style="rounded=0;orthogonalLoop=1;jettySize=auto;html=1;entryX=0;entryY=0.5;entryDx=0;entryDy=0;startArrow=none;startFill=0;endArrow=none;" edge="1" parent="1" source="6CS_z7qw0i-uUimPx4ec-8" target="6CS_z7qw0i-uUimPx4ec-1">
          <mxGeometry relative="1" as="geometry" />
        </mxCell>
        <mxCell id="6CS_z7qw0i-uUimPx4ec-7" value="Admin" style="shape=umlActor;verticalLabelPosition=bottom;verticalAlign=top;html=1;" vertex="1" parent="1">
          <mxGeometry x="90" y="130" width="30" height="60" as="geometry" />
        </mxCell>
        <mxCell id="6CS_z7qw0i-uUimPx4ec-11" style="rounded=0;orthogonalLoop=1;jettySize=auto;html=1;entryX=0;entryY=0.5;entryDx=0;entryDy=0;endArrow=none;startFill=0;" edge="1" parent="1" source="6CS_z7qw0i-uUimPx4ec-8" target="6CS_z7qw0i-uUimPx4ec-5">
          <mxGeometry relative="1" as="geometry" />
        </mxCell>
        <mxCell id="6CS_z7qw0i-uUimPx4ec-8" value="Kỹ thuật viên" style="shape=umlActor;verticalLabelPosition=bottom;verticalAlign=top;html=1;" vertex="1" parent="1">
          <mxGeometry x="90" y="270" width="30" height="60" as="geometry" />
        </mxCell>
        <mxCell id="6CS_z7qw0i-uUimPx4ec-12" style="edgeStyle=orthogonalEdgeStyle;rounded=0;orthogonalLoop=1;jettySize=auto;html=1;entryX=0.5;entryY=0;entryDx=0;entryDy=0;entryPerimeter=0;endArrow=block;endFill=0;" edge="1" parent="1" target="6CS_z7qw0i-uUimPx4ec-8">
          <mxGeometry relative="1" as="geometry">
            <mxPoint x="105" y="190" as="sourcePoint" />
          </mxGeometry>
        </mxCell>
        <mxCell id="6CS_z7qw0i-uUimPx4ec-15" style="edgeStyle=orthogonalEdgeStyle;rounded=0;orthogonalLoop=1;jettySize=auto;html=1;endArrow=none;endFill=0;startFill=0;startArrow=block;" edge="1" parent="1" source="6CS_z7qw0i-uUimPx4ec-13" target="6CS_z7qw0i-uUimPx4ec-14">
          <mxGeometry relative="1" as="geometry">
            <Array as="points">
              <mxPoint x="885" y="630" />
              <mxPoint x="105" y="630" />
            </Array>
          </mxGeometry>
        </mxCell>
        <mxCell id="6CS_z7qw0i-uUimPx4ec-19" style="rounded=0;orthogonalLoop=1;jettySize=auto;html=1;entryX=1;entryY=0.5;entryDx=0;entryDy=0;endArrow=none;startFill=0;" edge="1" parent="1" source="6CS_z7qw0i-uUimPx4ec-13" target="6CS_z7qw0i-uUimPx4ec-6">
          <mxGeometry relative="1" as="geometry" />
        </mxCell>
        <mxCell id="6CS_z7qw0i-uUimPx4ec-24" style="rounded=0;orthogonalLoop=1;jettySize=auto;html=1;entryX=1;entryY=1;entryDx=0;entryDy=0;endArrow=none;startFill=0;" edge="1" parent="1" source="6CS_z7qw0i-uUimPx4ec-13" target="6CS_z7qw0i-uUimPx4ec-23">
          <mxGeometry relative="1" as="geometry" />
        </mxCell>
        <mxCell id="6CS_z7qw0i-uUimPx4ec-13" value="Người dùng cấp 2" style="shape=umlActor;verticalLabelPosition=bottom;verticalAlign=top;html=1;" vertex="1" parent="1">
          <mxGeometry x="870" y="455" width="30" height="60" as="geometry" />
        </mxCell>
        <mxCell id="6CS_z7qw0i-uUimPx4ec-16" style="rounded=0;orthogonalLoop=1;jettySize=auto;html=1;entryX=0;entryY=0.5;entryDx=0;entryDy=0;endArrow=none;startFill=0;" edge="1" parent="1" source="6CS_z7qw0i-uUimPx4ec-14" target="6CS_z7qw0i-uUimPx4ec-4">
          <mxGeometry relative="1" as="geometry" />
        </mxCell>
        <mxCell id="6CS_z7qw0i-uUimPx4ec-17" style="rounded=0;orthogonalLoop=1;jettySize=auto;html=1;entryX=0;entryY=0.5;entryDx=0;entryDy=0;endArrow=none;startFill=0;" edge="1" parent="1" source="6CS_z7qw0i-uUimPx4ec-14" target="6CS_z7qw0i-uUimPx4ec-3">
          <mxGeometry relative="1" as="geometry" />
        </mxCell>
        <mxCell id="6CS_z7qw0i-uUimPx4ec-14" value="Khách hàng" style="shape=umlActor;verticalLabelPosition=bottom;verticalAlign=top;html=1;" vertex="1" parent="1">
          <mxGeometry x="90" y="470" width="30" height="60" as="geometry" />
        </mxCell>
        <mxCell id="6CS_z7qw0i-uUimPx4ec-23" value="Xem lịch sử" style="ellipse;whiteSpace=wrap;html=1;" vertex="1" parent="1">
          <mxGeometry x="640" y="350" width="140" height="70" as="geometry" />
        </mxCell>
        <mxCell id="6CS_z7qw0i-uUimPx4ec-25" value="Xem lịch sử cảnh báo" style="ellipse;whiteSpace=wrap;html=1;" vertex="1" parent="1">
          <mxGeometry x="470" y="240" width="140" height="70" as="geometry" />
        </mxCell>
        <mxCell id="6CS_z7qw0i-uUimPx4ec-26" value="&amp;lt;&amp;lt;extend&amp;gt;&amp;gt;" style="endArrow=open;startArrow=none;endFill=0;startFill=0;endSize=8;html=1;verticalAlign=bottom;dashed=1;labelBackgroundColor=none;rounded=0;entryX=1;entryY=1;entryDx=0;entryDy=0;" edge="1" parent="1" source="6CS_z7qw0i-uUimPx4ec-23" target="6CS_z7qw0i-uUimPx4ec-25">
          <mxGeometry width="160" relative="1" as="geometry">
            <mxPoint x="330" y="350" as="sourcePoint" />
            <mxPoint x="490" y="350" as="targetPoint" />
          </mxGeometry>
        </mxCell>
        <mxCell id="6CS_z7qw0i-uUimPx4ec-28" value="Xem lịch sử bất thường" style="ellipse;whiteSpace=wrap;html=1;" vertex="1" parent="1">
          <mxGeometry x="430" y="370" width="140" height="70" as="geometry" />
        </mxCell>
        <mxCell id="6CS_z7qw0i-uUimPx4ec-29" value="&amp;lt;&amp;lt;extend&amp;gt;&amp;gt;" style="endArrow=open;startArrow=none;endFill=0;startFill=0;endSize=8;html=1;verticalAlign=bottom;dashed=1;labelBackgroundColor=none;rounded=0;entryX=1;entryY=0.5;entryDx=0;entryDy=0;exitX=0;exitY=0.5;exitDx=0;exitDy=0;" edge="1" parent="1" source="6CS_z7qw0i-uUimPx4ec-23" target="6CS_z7qw0i-uUimPx4ec-28">
          <mxGeometry width="160" relative="1" as="geometry">
            <mxPoint x="680" y="380" as="sourcePoint" />
            <mxPoint x="629" y="280" as="targetPoint" />
          </mxGeometry>
        </mxCell>
        <mxCell id="6CS_z7qw0i-uUimPx4ec-30" value="Xem lịch sử công suất" style="ellipse;whiteSpace=wrap;html=1;" vertex="1" parent="1">
          <mxGeometry x="640" y="160" width="140" height="70" as="geometry" />
        </mxCell>
        <mxCell id="6CS_z7qw0i-uUimPx4ec-31" value="Cập nhật nội dung cảnh báo" style="ellipse;whiteSpace=wrap;html=1;" vertex="1" parent="1">
          <mxGeometry x="230" y="125" width="140" height="70" as="geometry" />
        </mxCell>
        <mxCell id="6CS_z7qw0i-uUimPx4ec-32" style="rounded=0;orthogonalLoop=1;jettySize=auto;html=1;entryX=0;entryY=1;entryDx=0;entryDy=0;startArrow=none;startFill=0;endArrow=none;exitX=1;exitY=0.3333333333333333;exitDx=0;exitDy=0;exitPerimeter=0;" edge="1" parent="1" source="6CS_z7qw0i-uUimPx4ec-8" target="6CS_z7qw0i-uUimPx4ec-31">
          <mxGeometry relative="1" as="geometry">
            <mxPoint x="120" y="270" as="sourcePoint" />
            <mxPoint x="250" y="230" as="targetPoint" />
          </mxGeometry>
        </mxCell>
        <mxCell id="6CS_z7qw0i-uUimPx4ec-33" value="&amp;lt;&amp;lt;extend&amp;gt;&amp;gt;" style="endArrow=open;startArrow=none;endFill=0;startFill=0;endSize=8;html=1;verticalAlign=bottom;dashed=1;labelBackgroundColor=none;rounded=0;entryX=0.5;entryY=1;entryDx=0;entryDy=0;exitX=0.5;exitY=0;exitDx=0;exitDy=0;" edge="1" parent="1" source="6CS_z7qw0i-uUimPx4ec-23" target="6CS_z7qw0i-uUimPx4ec-30">
          <mxGeometry width="160" relative="1" as="geometry">
            <mxPoint x="706.5" y="330" as="sourcePoint" />
            <mxPoint x="599.5" y="275" as="targetPoint" />
          </mxGeometry>
        </mxCell>
        <mxCell id="6CS_z7qw0i-uUimPx4ec-39" style="rounded=0;orthogonalLoop=1;jettySize=auto;html=1;dashed=1;endArrow=none;startFill=0;" edge="1" parent="1" source="6CS_z7qw0i-uUimPx4ec-36" target="6CS_z7qw0i-uUimPx4ec-30">
          <mxGeometry relative="1" as="geometry" />
        </mxCell>
        <mxCell id="6CS_z7qw0i-uUimPx4ec-36" value="Tính trung bình theo giờ hoặc ngày" style="shape=note2;boundedLbl=1;whiteSpace=wrap;html=1;size=25;verticalAlign=top;align=left;spacingLeft=5;" vertex="1" parent="1">
          <mxGeometry x="550" y="50" width="240" height="60" as="geometry" />
        </mxCell>
        <mxCell id="6CS_z7qw0i-uUimPx4ec-37" value="Theo khoảng thời gian" style="resizeWidth=1;part=1;strokeColor=none;fillColor=none;align=left;spacingLeft=5;whiteSpace=wrap;html=1;" vertex="1" parent="6CS_z7qw0i-uUimPx4ec-36">
          <mxGeometry width="240" height="25" relative="1" as="geometry" />
        </mxCell>
      </root>
    </mxGraphModel>
  </diagram>
</mxfile>
